<svg aria-hidden="true" style="position:absolute;width:0;height:0;overflow:hidden" xmlns="http://www.w3.org/2000/svg"><defs>
<symbol id="icon-circle-up" viewBox="0 0 32 32">
<path d="M0 16c0 8.837 7.163 16 16 16s16-7.163 16-16-7.163-16-16-16-16 7.163-16 16zM29 16c0 7.18-5.82 13-13 13s-13-5.82-13-13 5.82-13 13-13 13 5.82 13 13z"></path>
<path d="M22.086 20.914l2.829-2.829-8.914-8.914-8.914 8.914 2.828 2.828 6.086-6.086z"></path>
</symbol>
<symbol id="icon-close" viewBox="0 0 32 32"><path stroke-width="2.133" style="stroke:var(--color1, #2094f3e6)" d="m8.533 8.533 14.933 14.933m-14.933.001L23.466 8.534"/></symbol>
<symbol id="icon-github" viewBox="0 0 28 32"><path d="M25 2H3C1.344 2 0 3.344 0 5v22c0 1.656 1.344 3 3 3h22c1.656 0 3-1.344 3-3V5c0-1.656-1.344-3-3-3zm-7.669 23.981c-.525.094-.719-.231-.719-.5 0-.337.012-2.063.012-3.456 0-.975-.325-1.594-.706-1.919 2.313-.256 4.75-.575 4.75-4.569 0-1.137-.406-1.706-1.069-2.438.106-.269.462-1.375-.106-2.813-.869-.269-2.856 1.119-2.856 1.119-.825-.231-1.719-.35-2.6-.35s-1.775.119-2.6.35c0 0-1.988-1.387-2.856-1.119-.569 1.431-.219 2.537-.106 2.813-.662.731-.975 1.3-.975 2.438 0 3.975 2.331 4.313 4.644 4.569-.3.269-.569.731-.662 1.394-.594.269-2.112.731-3.019-.869-.569-.988-1.594-1.069-1.594-1.069-1.013-.012-.069.637-.069.637.675.313 1.15 1.512 1.15 1.512.606 1.856 3.506 1.231 3.506 1.231 0 .869.012 2.281.012 2.538 0 .269-.188.594-.719.5-4.125-1.381-7.013-5.306-7.013-9.894 0-5.738 4.388-10.094 10.125-10.094s10.387 4.356 10.387 10.094c.006 4.587-2.794 8.519-6.919 9.894zM11.2 22.163c-.119.025-.231-.025-.244-.106-.012-.094.069-.175.188-.2.119-.012.231.038.244.119.019.081-.063.163-.188.188zm-.594-.057c0 .081-.094.15-.219.15-.137.012-.231-.056-.231-.15 0-.081.094-.15.219-.15.119-.012.231.056.231.15zm-.856-.068c-.025.081-.15.119-.256.081-.119-.025-.2-.119-.175-.2s.15-.119.256-.094c.125.038.206.131.175.212zm-.769-.338c-.056.069-.175.056-.269-.038-.094-.081-.119-.2-.056-.256.056-.069.175-.056.269.038.081.081.113.206.056.256zm-.569-.569c-.056.038-.162 0-.231-.094s-.069-.2 0-.244c.069-.056.175-.012.231.081.069.094.069.206 0 .256zm-.406-.606c-.056.056-.15.025-.219-.038-.069-.081-.081-.175-.025-.219.056-.056.15-.025.219.038.069.081.081.175.025.219zm-.418-.462c-.025.056-.106.069-.175.025-.081-.038-.119-.106-.094-.163.025-.038.094-.056.175-.025.081.044.119.113.094.163z"/></symbol>
<symbol id="icon-linkedin" viewBox="0 0 28 32"><path d="M26 2H1.994C.894 2 0 2.906 0 4.019v23.962C0 29.094.894 30 1.994 30H26c1.1 0 2-.906 2-2.019V4.019C28 2.907 27.1 2 26 2zM8.463 26h-4.15V12.637h4.156V26zM6.388 10.813a2.407 2.407 0 0 1 0-4.812 2.41 2.41 0 0 1 2.406 2.406 2.403 2.403 0 0 1-2.406 2.406zM24.019 26h-4.15v-6.5c0-1.55-.031-3.544-2.156-3.544-2.162 0-2.494 1.688-2.494 3.431V26h-4.15V12.637h3.981v1.825h.056c.556-1.05 1.912-2.156 3.931-2.156 4.2 0 4.981 2.769 4.981 6.369V26z"/></symbol><symbol id="icon-film" viewBox="0 0 32 32"><path fill="none" stroke="#818181" style="stroke:var(--color1, #818181)" stroke-linejoin="round" stroke-linecap="round" stroke-width="2.667" d="M26.427 2.667H5.574a2.907 2.907 0 0 0-2.907 2.907v20.853a2.907 2.907 0 0 0 2.907 2.907v0h20.853a2.907 2.907 0 0 0 2.907-2.907v0V5.574a2.907 2.907 0 0 0-2.907-2.907v0zm-17.094 0v26.667M22.667 2.667v26.667M2.667 16h26.667M2.667 9.333h6.667M2.667 22.667h6.667m13.333 0h6.667M22.667 9.333h6.667"/></symbol><symbol id="icon-search" viewBox="0 0 32 32"><path fill="none" stroke="#fff" style="stroke:var(--color2, #fff)" stroke-linejoin="round" stroke-linecap="round" stroke-width="2.667" d="M14.667 25.333c5.891 0 10.667-4.776 10.667-10.667S20.558 3.999 14.667 3.999v0C8.776 3.999 4 8.775 4 14.666s4.776 10.667 10.667 10.667v0zM28 28l-5.8-5.8"/></symbol><symbol id="icon-Group" viewBox="0 0 34 32"><path fill="#ff6b08" style="fill:var(--color3, #ff6b08)" d="m17.231 31.705-2.412-2.412C5.859 21.367.001 16.025.001 9.478.001 4.136 4.136.001 9.478.001c2.929 0 5.858 1.378 7.754 3.618 1.895-2.24 4.825-3.618 7.754-3.618 5.342 0 9.477 4.135 9.477 9.477 0 6.548-5.858 11.889-14.818 19.815l-2.412 2.412z"/></symbol><symbol id="icon-close" viewBox="0 0 32 32"><path stroke-width="2.133" d="m8.533 8.533 14.933 14.933m-14.933.001L23.466 8.534"/></symbol><symbol id="close-black" viewBox="0 0 32 32">
<path d="M26.667 7.303l-1.97-1.97-7.808 7.808-7.808-7.808-1.97 1.97 7.808 7.808-7.808 7.808 1.97 1.97 7.808-7.808 7.808 7.808 1.97-1.97-7.808-7.808 7.808-7.808z"></path><symbol id="sun" viewBox="0 0 32 32"><path d="M15.235 5.12c-0.415 2.772-0.75 5.045-0.748 5.050 0.002 0.002 0.145-0.023 0.315-0.055 0.36-0.075 0.774-0.118 1.197-0.118s0.837 0.043 1.237 0.125l-0.039-0.007c0.17 0.033 0.313 0.057 0.315 0.055 0.010-0.012-1.5-10.095-1.512-10.095-0.008 0-0.352 2.27-0.765 5.045zM4.638 4.725c0.060 0.098 6.145 8.2 6.16 8.2 0.039-0.041 0.073-0.088 0.099-0.14l0.001-0.003c0.37-0.615 1.107-1.36 1.793-1.808l0.255-0.165-4.055-2.978c10.662 7.522 9.307 6.517 7.951 5.513l-12.116-8.576c-0.060-0.045-0.1-0.065-0.088-0.045zM23.21 7.758l-4.155 3.053 0.255 0.165c0.69 0.45 1.425 1.193 1.797 1.818 0.028 0.051 0.059 0.094 0.095 0.133l-0-0c0.012 0 6.1-8.1 6.157-8.195 0.010-0.015 0.015-0.030 0.010-0.030-0.005 0.003-1.878 1.378-4.16 3.058zM15.488 11.078c-1 0.111-1.893 0.498-2.62 1.083l0.010-0.008c-0.946 0.762-1.599 1.854-1.787 3.098l-0.003 0.027c-0.022 0.204-0.035 0.441-0.035 0.68s0.013 0.476 0.038 0.709l-0.002-0.029c0.151 1.068 0.633 2.004 1.336 2.721l-0.001-0.001c0.906 0.935 2.173 1.515 3.576 1.515 0.797 0 1.55-0.187 2.218-0.52l-0.029 0.013c0.54-0.26 1-0.598 1.388-1.006l0.002-0.002c0.703-0.716 1.184-1.652 1.332-2.694l0.003-0.026c0.022-0.204 0.035-0.441 0.035-0.68s-0.013-0.476-0.038-0.709l0.003 0.029c-0.23-1.623-1.265-3.018-2.775-3.742-0.631-0.304-1.372-0.481-2.155-0.481-0.174 0-0.347 0.009-0.516 0.026l0.021-0.002zM5.082 15.2c-4.33 0.635-5.155 0.76-5.080 0.777 0.070 0.015 10.137 1.488 10.143 1.483-0.009-0.090-0.024-0.172-0.046-0.251l0.002 0.011c-0.080-0.377-0.126-0.81-0.126-1.254s0.046-0.877 0.133-1.295l-0.007 0.041c0.027-0.133 0.047-0.245 0.043-0.248s-2.283 0.328-5.063 0.735zM21.85 14.477c0 0.012 0.023 0.125 0.050 0.25 0.165 0.742 0.165 1.718-0.003 2.492-0.017 0.066-0.032 0.147-0.042 0.23l-0.001 0.010c0.015 0.012 10.117-1.475 10.135-1.49 0.008-0.010-0.010-0.023-0.043-0.030s-2.297-0.34-5.035-0.74c-2.735-0.398-4.995-0.73-5.017-0.735-0.025-0.005-0.045 0-0.045 0.012zM7.737 23.065c3.283-4.579 2.27-3.239 1.258-1.898l-4.346 6.015c-0.048 0.067-0.58 0.455 4.18-3.043l4.115-3.025-0.252-0.165c-0.688-0.448-1.415-1.18-1.795-1.808-0.047-0.078-0.090-0.142-0.098-0.142s-1.385 1.83-3.063 4.065zM21.102 19.142c-0.38 0.628-1.108 1.36-1.795 1.808l-0.253 0.165 4.052 2.98c2.23 1.637 4.102 3.012 4.163 3.055 0.058 0.045 0.105 0.075 0.105 0.067 0-0.020-6.152-8.205-6.17-8.21-0.010-0.003-0.055 0.058-0.102 0.135zM14.48 21.78c0.008 0.017 0.348 2.29 0.76 5.050 0.41 2.762 0.752 5.020 0.76 5.020 0.012 0 1.523-10.082 1.512-10.095-0.125 0.016-0.232 0.035-0.337 0.059l0.022-0.004c-0.43 0.087-0.73 0.115-1.197 0.115s-0.768-0.027-1.193-0.115c-0.357-0.070-0.34-0.070-0.328-0.030z"></path></symbol><symbol id="moon" viewBox="0 0 32 32"><path d="M15.037 0.028c-1.85 0.115-3.672 0.547-5.362 1.272-0.71 0.302-2.043 1.017-2.463 1.32l-0.478 0.34c-0.447 0.315-0.915 0.688-1.303 1.030-0.407 0.36-0.938 0.86-0.995 0.938-0.1 0.121-0.194 0.228-0.291 0.331l0.004-0.004c-2.573 2.824-4.149 6.597-4.149 10.737 0 0.593 0.032 1.178 0.095 1.754l-0.006-0.071c0.404 3.786 2.081 7.12 4.588 9.622l0 0c1.593 1.603 3.524 2.868 5.677 3.679l0.11 0.036c1.015 0.378 2.162 0.67 3.26 0.825 0.853 0.12 1.275 0.148 2.25 0.148 0.935 0.003 1.298-0.020 2.025-0.113 0.212-0.027 0.455-0.058 0.538-0.063 0.082-0.008 0.302-0.047 0.488-0.087 1.768-0.4 2.742-0.733 4.063-1.385 0.955-0.466 1.774-0.975 2.536-1.556l-0.036 0.026c0.652-0.49 0.712-0.558 0.593-0.677-0.043-0.043-0.108-0.050-0.582-0.063-4.355-0.128-8.465-2.098-11.363-5.442-2.96-3.42-4.293-8.015-3.633-12.525 0.545-3.735 2.422-7.135 5.31-9.623 0.29-0.25 0.288-0.245 0.288-0.33 0-0.13-0.055-0.147-0.465-0.145-0.264 0.005-0.507 0.014-0.749 0.027l0.052-0.002z"></path></symbol></defs></svg>